<svg xmlns="http://www.w3.org/2000/svg" viewBox="0 0 517.07 216.7"><defs><style>.a{fill:#ff441f;fill-rule:evenodd;}</style></defs><title>Rappi logo - Brandlogos.net</title><path class="a" d="M749.43,403.65a20.9,20.9,0,0,1,21.1,21.1c0,10.95-9.26,20.26-21.1,20.26s-21.1-9.31-21.1-20.26A20.93,20.93,0,0,1,749.43,403.65ZM337,408.75a105,105,0,0,1,22.79,2.53A72.91,72.91,0,0,1,380,418.86c5.89,3.37,10.1,8.42,14.31,13.47a34.57,34.57,0,0,1,5.89,18.58,40,40,0,0,1-5.05,20.21c-3.37,6.74-8.42,12.68-13.47,17.73a97.42,97.42,0,0,1-19.42,12.63,92.55,92.55,0,0,1-19.42,7.58l-.84.84c0,3.37.84,6.74.84,10.1a42.25,42.25,0,0,0,1.68,10.16,42.26,42.26,0,0,0,1.68,10.1,58,58,0,0,1,2.53,6.74,6.13,6.13,0,0,0,1.74,3.37,29.91,29.91,0,0,0,3.37,7.58c.84,2.58,2.53,4.26,3.37,5.95,1.68,2.53,3.37,4.21,4.21,5.89,1.68,1.68,3.37,2.53,5.05,4.21,1.68.84,3.37,2.53,5.05,3.37l5.05,2.53c1.68.84,3.42.84,5.1,1.68,1.68,0,3.37.84,5.89.84h5.05c2.53-.84,4.21-.84,5.89-1.68,2.53,0,4.21-.84,6.74-1.68,1.68-.84,4.26-1.68,5.95-2.53.84-.84,1.68-.84,2.53-1.68a8,8,0,0,1,8.42,1.68c1.68,2.53.84,5.89-1.68,8.42a11.62,11.62,0,0,1-3.37,2.53c-2.53,1.68-5.05,4.21-7.58,5.89s-5.1,3.37-7.63,5.1c-1.68.84-2.53.84-4.21,1.68a29.89,29.89,0,0,1-7.58,3.37L382.55,606c-3.42.84-5.95.84-7.63,1.68h-7.58c-2.53,0-5.05-.84-7.58-.84-.84,0-2.53-.84-3.37-.84s-2.53-.84-3.37-.84c-1.68-.84-4.26-1.68-5.95-3.37a13.57,13.57,0,0,1-5.89-3.37,22.67,22.67,0,0,1-5.05-4.26,8.62,8.62,0,0,1-4.21-5.05,36.64,36.64,0,0,1-5.05-5.89,50,50,0,0,1-3.37-6.74c-1.68-1.68-2.53-4.21-3.42-6.74a25.22,25.22,0,0,1-3.37-8.42c-.84-2.53-1.68-5.1-2.53-8.47a29.92,29.92,0,0,0-1.68-8.42c0-3.37-.84-5.89-.84-8.42,0-.84-1.68-.84-1.68,0l-2.53,10.1c-1.68,5.05-2.53,8.42-3.37,11.79-.84,4.26-1.68,6.79-1.68,8.47-.84,4.21-3.37,5.89-6.74,6.74a16.91,16.91,0,0,1-11-.84c-3.37-.84-6.74-3.37-9.26-5.89a13.61,13.61,0,0,1-5.05-11c0-3.37.84-9.26,3.37-16.84a236.91,236.91,0,0,1,7.58-27.84c3.37-10.1,7.58-21.89,11.84-33.73,4.21-10.95,8.42-21,13.47-31.15a11.52,11.52,0,0,1,8.42-6.79c8.47-.84,16-.84,21.94.84a5.86,5.86,0,0,1,4.21,8.47c-3.37,9.26-7.58,17.68-10.95,26.94-2.53,6.74-5.05,13.52-7.58,20.26,0,.84.84,1.68.84.84l10.1-5.05a58,58,0,0,0,13.47-11.84,54.29,54.29,0,0,0,10.16-14.31,41.41,41.41,0,0,0,3.37-17.68c0-7.63-1.68-13.52-5.89-16.89a32.65,32.65,0,0,0-18.58-5.89c-8.42,0-16,2.53-22.79,5.89-6.74,4.21-13.47,9.26-17.68,14.37-5.1,5.89-9.31,11.79-11.84,18.52-2.53,5.89-4.21,11.79-4.21,16,0,3.42-1.68,5.95-5.05,6.79-2.53.84-5.05.84-8.42-.84-3.37-.84-5.95-3.42-8.47-5.95a21.42,21.42,0,0,1-4.21-13.47c0-4.21,2.53-10.1,5.89-16.84,3.42-5.95,9.31-12.68,16-18.58s15.16-10.95,26.15-15.16C311.67,410.44,323.51,408.75,337,408.75ZM667.6,453.43c5.1,0,10.16,1.68,13.52,5.05,3.37,2.53,5.89,7.58,7.58,12.63,1.68,5.89,1.68,11.84.84,19.42a80.89,80.89,0,0,1-6.74,25.26c-2.53,9.31-6.74,16.89-10.95,23.63-1.74,2.53-4.26,5.89-5.95,8.42a.82.82,0,0,0,.84.84,11.62,11.62,0,0,1,3.37-2.53,44.46,44.46,0,0,0,7.63-5.89,41.11,41.11,0,0,0,14.31-21.1L697.13,504a144.68,144.68,0,0,1,9.31-22.79q3.79-10.1,7.58-15.16c2.53-4.21,5.05-5.89,9.26-6.74a24.18,24.18,0,0,1,11,0,17.47,17.47,0,0,1,8.42,5.05c2.53,2.53,2.53,5.05,1.68,8.42-.84.84-1.68,3.37-3.37,7.58-1.68,3.42-3.37,7.63-5.89,12.68-1.68,5.05-4.21,10.95-6.79,16.84-1.68,5.05-3.37,11-5.05,15.21a64,64,0,0,0-.84,11.79c0,2.53,1.68,2.53,1.68,2.53.84,0,2.53,0,5.05-2.53,1.74-1.68,4.26-3.37,6.79-5.89,1.68-2.53,4.21-5.05,6.74-8.42,1.68-2.58,3.37-5.1,4.21-6.79a7.28,7.28,0,0,1,5.05-2.53c2.53,0,5.05.84,5.89,2.53a7.31,7.31,0,0,1,0,5.95c-1.68,1.68-4.21,5.89-7.58,10.95-4.21,5.89-8.42,10.95-13.47,16.84a90.77,90.77,0,0,1-16,15.21c-5.89,4.21-12.63,6.74-18.52,6.74s-10.16-2.53-12.68-5.89A32,32,0,0,1,686.18,552v-1.68s-.84-.84-.84,0c-1.68.84-2.53,1.68-4.21,2.53a97,97,0,0,1-24.47,13.52,70.07,70.07,0,0,1-27,5.05H626.3c-6.74,0-11.79-2.53-14.37-6.74-.84-.84-1.68-.84-1.68-1.68-.84-.84-1.68-.84-1.68,0-.84,3.37-1.68,6.74-2.53,9.26Q603.51,582.41,601,590a105.31,105.31,0,0,0-3.37,13.52,44.69,44.69,0,0,1-2.53,9.26c-.84,5.05-3.37,6.74-5.89,6.74-.84.84-2.53.84-3.37.84-1.68,0-4.26-.84-6.79-1.68-3.37-.84-5.89-3.37-8.42-5.89a16,16,0,0,1-4.21-10.95c0-.84,0-2.53,1.68-10.16a183.36,183.36,0,0,0,5.05-18.52c1.68-5.89,3.37-10.95,5.05-16.89.84-.84,0-1.68-.84-.84a128.74,128.74,0,0,1-21.89,11,66,66,0,0,1-26.15,5.05h-4.26c-6.74,0-10.95-2.53-14.31-6.74L509.05,563c0-.84-.84-.84-1.68,0-.84,3.37-1.68,6.74-2.53,9.26q-2.53,10.1-5.05,17.68c-.84,5.05-2.53,9.31-3.37,13.52s-1.74,7.58-1.74,9.26c-.84,5.05-4.21,6.74-6.74,6.74-.84.84-1.68.84-3.37.84a15.61,15.61,0,0,1-5.89-1.68c-3.37-.84-6.74-3.37-9.26-5.89a16,16,0,0,1-4.26-10.95c0-.84.84-2.53,2.58-10.16a103.55,103.55,0,0,1,5.05-18.52c.84-5.05,2.53-9.26,4.21-15.21a2.94,2.94,0,0,0-1.68-.84,71.21,71.21,0,0,1-8.42,7.63c-5.95,4.21-11.84,6.74-17.73,6.74a15.38,15.38,0,0,1-12.68-5.89L434,560.52c0-2.58-2.53-2.58-4.21-1.68-1.68,2.53-3.37,4.21-5.89,5.05a20.07,20.07,0,0,1-9.26,5.05,23.52,23.52,0,0,1-11,2.53c-5.05,0-9.26-1.68-13.47-5.05-3.37-3.37-6.74-7.58-8.42-12.68C380,547.84,380,541.1,380,533.52a181.71,181.71,0,0,1,5.05-24.47c6.74-19.37,14.31-32.89,24.47-42.15s20.21-13.47,29.52-13.47c4.21,0,8.42.84,10.95,2.53a25.63,25.63,0,0,1,6.74,6.74c.84,1.68.84,3.37,1.68,5.89h.84c0-.84.84-1.68,1.68-2.53,1.68-4.21,5.05-5.89,9.31-6.74a24,24,0,0,1,10.95,0,17.47,17.47,0,0,1,8.42,5.05c1.68,2.53,2.53,5.05.84,8.42q0,1.26-2.53,7.58c-1.68,3.42-4.21,7.63-5.89,12.68-2.53,5.89-4.21,10.95-6.74,16.84-1.68,5.05-3.37,11-5.05,15.21-.84,5.05-1.68,8.42-.84,11.79,0,2.53.84,2.53,1.68,2.53s2.53,0,4.21-2.53a14.78,14.78,0,0,0,4.21-3.37,44.65,44.65,0,0,0,10.95-16.89c2.53-8.42,5.95-17.68,9.31-26.1a216.31,216.31,0,0,1,10.1-23.63c1.68-4.21,4.21-6.74,8.42-7.58,3.37-.84,6.74-1.68,10.16-.84a26.34,26.34,0,0,1,8.42,4.21l2.53,2.53c0,.84.84.84.84,0a37.38,37.38,0,0,1,9.26-6.74,31.42,31.42,0,0,1,17.73-5.05c5.05,0,9.26,1.68,13.47,5.05,3.42,2.53,5.95,7.58,6.79,12.63,1.68,5.89,1.68,11.84.84,19.42,0,7.58-2.53,16-5.95,25.26s-7.58,16.89-10.95,23.63c-2.53,2.53-4.21,5.89-6.74,8.42l.84.84c.84-.84,2.53-1.68,3.37-2.53,2.53-.84,4.21-2.53,5.89-4.21a39.07,39.07,0,0,0,14.37-20.21l1.68-3.42L601,490.53a216.32,216.32,0,0,1,10.1-23.63c1.68-4.21,4.26-6.74,7.63-7.58s6.74-1.68,10.1-.84a31.13,31.13,0,0,1,9.26,4.21l2.53,2.53c0,.84,0,.84.84,0a38.68,38.68,0,0,1,9.31-6.74A30.36,30.36,0,0,1,667.6,453.43Zm-221,32.89c-.84,4.21-1.68,8.42-2.53,13.47l-5.05,15.16c-2.58,5.95-4.26,11-6.79,15.21s-5.05,8.42-7.58,10.95c-1.68,3.37-4.21,5.89-5.89,6.74a10.42,10.42,0,0,0-2.53,1.68h0c-.84-.84-1.68-.84-1.68-4.21-.84-1.68-.84-5.05,0-9.26a46.29,46.29,0,0,1,2.53-13.47,63.47,63.47,0,0,1,5.05-15.21,119.27,119.27,0,0,1,6.74-15.16c1.68-4.21,4.21-7.58,6.74-11a59.23,59.23,0,0,1,5.95-6.74,6.52,6.52,0,0,1,2.53-.84H445a9.22,9.22,0,0,1,1.68,3.37Zm109.66.84c-.84,4.21-2.58,8.42-3.42,13.47-1.68,5.05-4.21,10.1-5.89,16-2.53,5.1-5.05,10.16-7.58,14.37-3.37,5.05-5.89,8.42-8.42,11.79a45.08,45.08,0,0,1-5.95,6.74,6.36,6.36,0,0,1-3.37.84h0A9.22,9.22,0,0,1,520,547a37.76,37.76,0,0,1,.84-9.26,104.69,104.69,0,0,1,3.37-13.47c1.74-5.1,3.42-10.16,5.95-16.05,2.53-5.05,5.05-10.1,7.58-14.31a74.66,74.66,0,0,1,7.58-11.84l6.74-6.74a6.58,6.58,0,0,1,2.58-.84h0c.84,0,1.68.84,1.68,3.37C557.15,480.37,556.31,483.79,556.31,487.16Zm100.35,0a104.7,104.7,0,0,1-3.37,13.47c-1.68,5.05-3.37,10.1-5.89,16-2.53,5.1-5.05,10.16-7.63,14.37a71.62,71.62,0,0,1-7.58,11.79c-2.53,2.53-4.21,5.05-6.74,6.74a6.52,6.52,0,0,1-2.53.84h0c-.84,0-1.68-.84-1.68-3.37a37.76,37.76,0,0,1,.84-9.26c0-4.21,1.68-8.42,3.37-13.47.84-5.1,3.37-10.16,5.05-16.05,2.53-5.05,5.05-10.1,7.58-14.31,3.37-5.05,5.95-8.42,8.47-11.84,2.53-2.53,4.21-5.05,6.74-6.74a3.09,3.09,0,0,1,2.53-.84h0a9.21,9.21,0,0,1,1.68,3.37A38.16,38.16,0,0,1,656.66,487.16Z" transform="translate(-253.47 -403.65)"/></svg>