<svg width="314" height="496" viewBox="0 0 314 496" fill="none" xmlns="http://www.w3.org/2000/svg">
<path d="M311.295 163.718H312.407C313.021 163.718 313.518 164.218 313.518 164.834V237.763C313.518 238.38 313.021 238.879 312.407 238.879H311.295V163.718Z" fill="#303030"/>
<path d="M2.22461 254.507L1.11284 254.507C0.498827 254.507 0.00107293 254.008 0.00107298 253.391L0.0010768 209.485C0.00107686 208.869 0.498832 208.369 1.11284 208.369L2.22461 208.369L2.22461 254.507Z" fill="#303030"/>
<path d="M2.22461 193.485L1.11284 193.485C0.498827 193.485 0.00107293 192.985 0.00107298 192.369L0.0010768 148.463C0.00107686 147.846 0.498832 147.346 1.11284 147.346L2.22461 147.346L2.22461 193.485Z" fill="#333333"/>
<path d="M2.22266 125.021L1.11089 125.021C0.496878 125.021 -0.000877337 124.521 -0.000877283 123.905L-0.000875404 102.324C-0.00087535 101.707 0.496879 101.207 1.11089 101.207L2.22266 101.207L2.22266 125.021Z" fill="#333333"/>
<path fill-rule="evenodd" clip-rule="evenodd" d="M4.58058 33.4236C2.22266 40.7098 2.22266 49.713 2.22266 67.7195V570.778C2.22266 588.785 2.22266 597.788 4.58058 605.074C9.3461 619.8 20.8451 631.345 35.5118 636.13C42.7688 638.498 51.7358 638.498 69.6698 638.498H243.846C261.78 638.498 270.747 638.498 278.004 636.13C292.671 631.345 304.17 619.8 308.936 605.074C311.294 597.788 311.294 588.785 311.294 570.778V67.7194C311.294 49.713 311.294 40.7098 308.936 33.4236C304.17 18.6976 292.671 7.15221 278.004 2.36745C270.747 0 261.78 0 243.846 0H69.6698C51.7358 0 42.7688 0 35.5118 2.36745C20.8451 7.15221 9.3461 18.6976 4.58058 33.4236ZM80.7881 18.2322V21.5809L80.841 21.5793L80.7878 21.953C80.7878 30.7894 87.9223 37.9526 96.7231 37.9526H216.794C225.595 37.9526 232.729 30.7894 232.729 21.953L232.676 21.5793L232.729 21.5809V18.2322C232.729 15.9717 234.554 14.1392 236.805 14.1392L246.352 14.1392C261.276 14.1392 268.738 14.1392 274.69 16.3971C284.044 19.9461 291.428 27.36 294.963 36.7521C297.212 42.7274 297.212 50.2197 297.212 65.2041V573.294C297.212 588.278 297.212 595.77 294.963 601.746C291.428 611.138 284.044 618.552 274.69 622.101C268.738 624.358 261.276 624.358 246.352 624.358H67.165C52.2408 624.358 44.7787 624.358 38.8273 622.101C29.473 618.552 22.0889 611.138 18.5542 601.746C16.3054 595.77 16.3054 588.278 16.3054 573.294V65.2041C16.3054 50.2197 16.3054 42.7274 18.5542 36.7521C22.0889 27.36 29.473 19.9461 38.8273 16.3971C44.7787 14.1392 52.2408 14.1392 67.165 14.1392L76.7116 14.1392C78.963 14.1392 80.7881 15.9717 80.7881 18.2322Z" fill="#333333"/>
<path fill-rule="evenodd" clip-rule="evenodd" d="M244.144 1.48807H69.3744C51.6586 1.48807 42.9764 1.49725 35.9709 3.78267C21.7554 8.42021 10.6103 19.6103 5.9914 33.8832C3.71517 40.917 3.70602 49.6342 3.70602 67.4215V571.076C3.70602 588.863 3.71517 597.58 5.9914 604.614C10.6103 618.887 21.7554 630.077 35.9709 634.714C42.9764 637 51.6586 637.009 69.3744 637.009H244.144C261.86 637.009 270.542 637 277.547 634.714C291.763 630.077 302.908 618.887 307.527 604.614C309.803 597.58 309.812 588.863 309.812 571.076V67.4215C309.812 49.6342 309.803 40.917 307.527 33.8832C302.908 19.6103 291.763 8.42021 277.547 3.78267C270.542 1.49725 261.86 1.48807 244.144 1.48807ZM5.2865 33.6532C2.96484 40.8274 2.96484 49.6921 2.96484 67.4215V571.076C2.96484 588.805 2.96484 597.67 5.2865 604.844C9.9787 619.343 21.3008 630.711 35.7419 635.422C42.8872 637.753 51.7162 637.753 69.3744 637.753H244.144C261.802 637.753 270.631 637.753 277.777 635.422C292.218 630.711 303.54 619.343 308.232 604.844C310.554 597.67 310.554 588.805 310.554 571.076V67.4215C310.554 49.6921 310.554 40.8274 308.232 33.6532C303.54 19.1538 292.218 7.78607 277.777 3.07492C270.631 0.743896 261.802 0.743896 244.144 0.743896H69.3744C51.7162 0.743896 42.8872 0.743896 35.7419 3.07492C21.3008 7.78607 9.9787 19.1538 5.2865 33.6532Z" fill="#303030"/>
<path fill-rule="evenodd" clip-rule="evenodd" d="M8.10624 34.5732C5.92969 41.299 5.92969 49.6096 5.92969 66.231V572.266C5.92969 588.888 5.92969 597.198 8.10624 603.924C12.5052 617.517 23.1196 628.175 36.6581 632.591C43.3569 634.777 51.6341 634.777 68.1886 634.777H245.33C261.885 634.777 270.162 634.777 276.86 632.591C290.399 628.175 301.013 617.517 305.412 603.924C307.589 597.198 307.589 588.888 307.589 572.266V66.231C307.589 49.6096 307.589 41.299 305.412 34.5732C301.013 20.98 290.399 10.3227 276.86 5.90604C270.162 3.7207 261.885 3.7207 245.33 3.7207H68.1886C51.6341 3.7207 43.3569 3.7207 36.6581 5.90604C23.1196 10.3227 12.5052 20.98 8.10624 34.5732ZM80.7884 18.232V21.5808L80.8413 21.5791L80.7881 21.9528C80.7881 30.7892 87.9226 37.9525 96.7234 37.9525H216.794C225.595 37.9525 232.73 30.7892 232.73 21.9528L232.676 21.5791L232.729 21.5808V18.232C232.729 15.9716 234.554 14.1391 236.806 14.1391L246.352 14.1391C261.277 14.1391 268.739 14.1391 274.69 16.397C284.044 19.9459 291.428 27.3599 294.963 36.7519C297.212 42.7273 297.212 50.2195 297.212 65.204V573.293C297.212 588.278 297.212 595.77 294.963 601.745C291.428 611.137 284.044 618.551 274.69 622.1C268.739 624.358 261.277 624.358 246.352 624.358H67.1653C52.2411 624.358 44.7789 624.358 38.8276 622.1C29.4733 618.551 22.0892 611.137 18.5545 601.745C16.3057 595.77 16.3057 588.278 16.3057 573.293V65.204C16.3057 50.2195 16.3057 42.7273 18.5545 36.7519C22.0892 27.3599 29.4733 19.9459 38.8276 16.397C44.7789 14.1391 52.2411 14.1391 67.1653 14.1391L76.7119 14.1391C78.9633 14.1391 80.7884 15.9716 80.7884 18.232Z" fill="#121515"/>
<rect x="245.328" width="4.44705" height="3.72085" fill="#414141"/>
<rect x="307.588" y="63.9979" width="3.70594" height="4.46502" fill="#414141"/>
<rect x="2.22266" y="63.9979" width="3.70589" height="4.46502" fill="#414141"/>
<path fill-rule="evenodd" clip-rule="evenodd" d="M188.259 29.7662C191.534 29.7662 194.189 27.1008 194.189 23.8129C194.189 20.5249 191.534 17.8595 188.259 17.8595C184.985 17.8595 182.33 20.5249 182.33 23.8129C182.33 27.1008 184.985 29.7662 188.259 29.7662Z" fill="#262C2D"/>
<path fill-rule="evenodd" clip-rule="evenodd" d="M188.259 27.5342C190.305 27.5342 191.965 25.8683 191.965 23.8134C191.965 21.7584 190.305 20.0925 188.259 20.0925C186.212 20.0925 184.553 21.7584 184.553 23.8134C184.553 25.8683 186.212 27.5342 188.259 27.5342Z" fill="#121515"/>
<path opacity="0.4" fill-rule="evenodd" clip-rule="evenodd" d="M188.259 23.0692C188.669 23.0692 189.001 22.7359 189.001 22.3247C189.001 21.9135 188.669 21.5802 188.259 21.5802C187.85 21.5802 187.518 21.9135 187.518 22.3247C187.518 22.7359 187.85 23.0692 188.259 23.0692Z" fill="#636F73"/>
<path fill-rule="evenodd" clip-rule="evenodd" d="M138.6 23.8141C138.6 22.5811 139.599 21.5815 140.832 21.5815H172.685C173.918 21.5815 174.917 22.5811 174.917 23.8141C174.917 25.047 173.918 26.0466 172.685 26.0466H140.832C139.599 26.0466 138.6 25.047 138.6 23.8141Z" fill="#262C2D"/>
</svg>
