<svg xmlns="http://www.w3.org/2000/svg" x="0px" y="0px" width="100" height="100" viewBox="0,0,256,256">
<defs><linearGradient x1="32" y1="16.331" x2="32" y2="43.931" gradientUnits="userSpaceOnUse" id="color-1_z141a1LTk4YM_gr1"><stop offset="0" stop-color="#b5b4ff"></stop><stop offset="1" stop-color="#ff14a7"></stop></linearGradient><linearGradient x1="53.024" y1="28.166" x2="53.024" y2="34.439" gradientUnits="userSpaceOnUse" id="color-2_z141a1LTk4YM_gr2"><stop offset="0" stop-color="#b5b4ff"></stop><stop offset="1" stop-color="#ff14a7"></stop></linearGradient><linearGradient x1="10.976" y1="28.166" x2="10.976" y2="34.439" gradientUnits="userSpaceOnUse" id="color-3_z141a1LTk4YM_gr3"><stop offset="0" stop-color="#b5b4ff"></stop><stop offset="1" stop-color="#ff14a7"></stop></linearGradient><linearGradient x1="26.5" y1="18.143" x2="26.5" y2="23.857" gradientUnits="userSpaceOnUse" id="color-4_z141a1LTk4YM_gr4"><stop offset="0" stop-color="#ff67c1"></stop><stop offset="1" stop-color="#7140bc"></stop></linearGradient><linearGradient x1="37.5" y1="18.143" x2="37.5" y2="23.857" gradientUnits="userSpaceOnUse" id="color-5_z141a1LTk4YM_gr5"><stop offset="0" stop-color="#ff67c1"></stop><stop offset="1" stop-color="#7140bc"></stop></linearGradient><linearGradient x1="26.5" y1="28" x2="26.5" y2="33" gradientUnits="userSpaceOnUse" id="color-6_z141a1LTk4YM_gr6"><stop offset="0" stop-color="#ff67c1"></stop><stop offset="1" stop-color="#7140bc"></stop></linearGradient><linearGradient x1="37.5" y1="28" x2="37.5" y2="33" gradientUnits="userSpaceOnUse" id="color-7_z141a1LTk4YM_gr7"><stop offset="0" stop-color="#ff67c1"></stop><stop offset="1" stop-color="#7140bc"></stop></linearGradient><linearGradient x1="36.5" y1="37" x2="36.5" y2="41" gradientUnits="userSpaceOnUse" id="color-8_z141a1LTk4YM_gr8"><stop offset="0" stop-color="#ff67c1"></stop><stop offset="1" stop-color="#7140bc"></stop></linearGradient><linearGradient x1="32" y1="4" x2="32" y2="55" gradientUnits="userSpaceOnUse" id="color-9_z141a1LTk4YM_gr9"><stop offset="0" stop-color="#ff67c1"></stop><stop offset="1" stop-color="#7140bc"></stop></linearGradient><linearGradient x1="32" y1="47.343" x2="32" y2="55.576" gradientUnits="userSpaceOnUse" id="color-10_z141a1LTk4YM_gr10"><stop offset="0" stop-color="#b5b4ff"></stop><stop offset="1" stop-color="#ff14a7"></stop></linearGradient></defs><g fill="none" fill-rule="nonzero" stroke="none" stroke-width="1" stroke-linecap="butt" stroke-linejoin="miter" stroke-miterlimit="10" stroke-dasharray="" stroke-dashoffset="0" font-family="none" font-weight="none" font-size="none" text-anchor="none" style="mix-blend-mode: normal"><g transform="scale(4,4)"><path d="M48,31.5c0,-5.247 -3.806,-11.5 -8.5,-11.5c-3.202,0 -5.988,1.981 -7.438,4.904c-1.408,-2.909 -4.262,-4.904 -7.562,-4.904c-4.694,0 -8.5,6.029 -8.5,11c0,4.792 3.54,6.698 8,6.973v1.027c0,1.657 1.343,3 3,3h10c1.657,0 3,-1.343 3,-3v-0.028c4.46,-0.291 8,-2.414 8,-7.472z" fill="url(#color-1_z141a1LTk4YM_gr1)"></path><path d="M20,28.975v1.266c0,2.868 2.082,5.442 4.936,5.731c3.275,0.331 6.064,-2.261 6.064,-5.472v-1.525c0,-0.005 0,-0.01 0,-0.015c-0.003,-0.824 -0.585,-1.536 -1.36,-1.818l-5.965,-2.169c-0.731,-0.266 -1.559,-0.108 -2.124,0.427c-0.952,0.901 -1.551,2.167 -1.551,3.575z" fill="#ffffff"></path><path d="M40.64,25.12l-6.305,2.102c-0.758,0.253 -1.332,0.94 -1.335,1.739c0,0.005 0,0.01 0,0.014v1.266c0,2.868 2.082,5.442 4.936,5.731c3.275,0.331 6.064,-2.261 6.064,-5.472v-1.525c0,-1.294 -0.504,-2.471 -1.324,-3.356c-0.514,-0.555 -1.318,-0.738 -2.036,-0.499z" fill="#ffffff"></path><path d="M53.323,34h-2.323v-5h2.046c1.415,0 2.382,1.429 1.857,2.743l-0.651,1.629c-0.152,0.379 -0.52,0.628 -0.929,0.628z" fill="url(#color-2_z141a1LTk4YM_gr2)"></path><path d="M10.677,34h2.323v-5h-2.046c-1.415,0 -2.382,1.429 -1.857,2.743l0.651,1.629c0.152,0.379 0.52,0.628 0.929,0.628z" fill="url(#color-3_z141a1LTk4YM_gr3)"></path><path d="M28.257,23.857l-5,-2l1.486,-3.714l5,2z" fill="url(#color-4_z141a1LTk4YM_gr4)"></path><path d="M35.743,23.857l-1.486,-3.714l5,-2l1.486,3.714z" fill="url(#color-5_z141a1LTk4YM_gr5)"></path><ellipse cx="26.5" cy="30.5" rx="1.5" ry="2.5" fill="url(#color-6_z141a1LTk4YM_gr6)"></ellipse><ellipse cx="37.5" cy="30.5" rx="1.5" ry="2.5" fill="url(#color-7_z141a1LTk4YM_gr7)"></ellipse><path d="M35,41c-0.553,0 -1,-0.447 -1,-1c0,-0.552 0.446,-0.998 0.997,-1c0.038,-0.001 2.003,-0.061 2.003,-1c0,-0.553 0.447,-1 1,-1c0.553,0 1,0.447 1,1c0,2.373 -2.616,3 -4,3z" fill="url(#color-8_z141a1LTk4YM_gr8)"></path><path d="M55,25h-3v-1c0,-3.85 -1.815,-7.4 -4.898,-9.661l1.807,-3.92c0.157,-0.342 0.109,-0.743 -0.123,-1.038c-0.233,-0.296 -0.611,-0.439 -0.981,-0.361l-4.135,0.827l-1.722,-5.163c-0.115,-0.348 -0.412,-0.604 -0.772,-0.668c-0.359,-0.065 -0.727,0.073 -0.957,0.359l-3.302,4.128l-2.21,-2.21c-0.28,-0.28 -0.699,-0.366 -1.063,-0.228c-0.369,0.142 -0.62,0.485 -0.642,0.879l-0.281,5.056h-8.721c-6.617,0 -12,5.383 -12,12v1h-3c-2.206,0 -4,1.794 -4,4v5c0,2.206 1.794,4 4,4h1.595c1.378,0 2.655,0.687 3.333,1.791c0.327,0.533 0.693,1.029 1.082,1.501c-2.893,0.86 -5.01,3.54 -5.01,6.708v7h2v-7c0,-2.675 2.117,-4.848 4.761,-4.976c2.286,1.892 5.161,2.976 8.239,2.976h14c3.078,0 5.953,-1.084 8.239,-2.976c2.644,0.128 4.761,2.301 4.761,4.976v7h2v-7c0,-3.168 -2.117,-5.848 -5.01,-6.708c0.389,-0.472 0.755,-0.968 1.082,-1.501c0.678,-1.104 1.955,-1.791 3.333,-1.791h1.595c2.206,0 4,-1.794 4,-4v-5c0,-2.206 -1.794,-4 -4,-4zM57,34c0,1.103 -0.897,2 -2,2h-1.595c-2.068,0 -3.999,1.052 -5.038,2.746c-2.018,3.29 -5.52,5.254 -9.367,5.254h-14c-3.847,0 -7.349,-1.964 -9.367,-5.254c-1.039,-1.694 -2.97,-2.746 -5.038,-2.746h-1.595c-1.103,0 -2,-0.897 -2,-2v-5c0,-1.103 0.897,-2 2,-2h4c0.553,0 1,-0.447 1,-1v-2c0,-5.514 4.486,-10 10,-10h9.667c0.53,0 0.969,-0.415 0.998,-0.944l0.209,-3.767l1.419,1.418c0.201,0.202 0.476,0.308 0.763,0.291c0.283,-0.016 0.548,-0.151 0.726,-0.373l2.852,-3.565l1.419,4.257c0.159,0.479 0.647,0.766 1.145,0.664l3.073,-0.614l-1.339,2.904c-0.21,0.457 -0.05,0.998 0.376,1.266c2.937,1.846 4.692,5.01 4.692,8.463v2c0,0.553 0.447,1 1,1h4c1.103,0 2,0.897 2,2zM19,50h2v5h-2zM43,50h2v5h-2z" fill="url(#color-9_z141a1LTk4YM_gr9)"></path><g fill="url(#color-10_z141a1LTk4YM_gr10)"><path d="M41,53.719c0,-2.917 -2.015,-5.281 -4.5,-5.281c-2.275,0 -4.137,1.989 -4.438,4.562h-0.124c-0.301,-2.573 -2.163,-4.562 -4.438,-4.562c-2.485,0 -4.5,2.365 -4.5,5.281c0,0.446 0.064,0.87 0.155,1.281h17.689c0.092,-0.411 0.156,-0.835 0.156,-1.281z"></path>
<text x="13" y="13" font-size="15" text-anchor="middle" font-family="sans-serif" font-weight="bold">Login</text></g></g></g>
</svg>